<svg xmlns="http://www.w3.org/2000/svg" viewBox="0 0 16 16" fill="currentColor"><path d="M14.87.02c-.46 0-.87.27-1.05.7L12.8 3.15c-.3-.28-.7-.46-1.13-.46h-10C.75 2.69 0 3.43 0 4.35v10c0 .92.75 1.67 1.67 1.67h10c.92 0 1.66-.75 1.66-1.67v-7.3l2.56-5.4A1.14 1.14 0 0 0 14.86.03zm-2.2 14.33a1 1 0 0 1-1 1h-10a1 1 0 0 1-1-1v-10a1 1 0 0 1 1-1h10a1 1 0 0 1 .84.49l-1.18 2.82V5.02a.33.33 0 0 0-.33-.33H2.33a.33.33 0 0 0-.33.33v2.67c0 .18.15.33.33.33h8.43l-.28.67H7.67a.33.33 0 0 0-.34.33v4.02c-.27.25-.43.33-.45.33a.33.33 0 0 0-.12.55 2.5 2.5 0 0 0 1.8.67c.84 0 1.64-.3 2-.67.53-.52.92-1.56.63-2.33l1.48-3.13v5.9zm-4.21-1.9c.09-.31.18-.6.44-.86.47-.47 1.06-.47 1.53 0 .42.42.1 1.43-.33 1.86-.36.36-1.65.7-2.51.26.11-.1.25-.2.4-.36a2 2 0 0 0 .47-.9zm-.46-.7v-2.4h2.2l-.5 1.23c-.45-.01-.9.17-1.27.54-.2.2-.34.42-.43.63zm2.35-1.02.9-2.14.5.24-1.01 2.15a1.9 1.9 0 0 0-.39-.25zm.32-5.38v2h-8v-2h8zm4.62-3.98-3.25 6.86-.53-.26 1.69-4.04L14.43.97a.47.47 0 0 1 .44-.28c.25 0 .46.2.46.49 0 .06-.01.13-.04.2z"/><path d="M5.67 8.69H2.33a.33.33 0 0 0-.33.33v4.67c0 .18.15.33.33.33h3.34c.18 0 .33-.15.33-.33V9.02a.33.33 0 0 0-.33-.33zm-.34 4.66H2.67v-4h2.66v4z"/></svg>
