<svg xmlns="http://www.w3.org/2000/svg" viewBox="0 0 16 16" fill="currentColor"><path d="M14.46 2.98H8.45L7.55.22A.33.33 0 0 0 7.24 0h-5.7C.69 0 0 .69 0 1.54v9.95c0 .84.69 1.53 1.54 1.53h6l.92 2.76c.04.13.16.22.3.22h5.7c.85 0 1.54-.69 1.54-1.54V4.51c0-.84-.69-1.53-1.54-1.53zm-12.92 9.4a.88.88 0 0 1-.89-.9V1.55c0-.5.4-.89.89-.89H7l3.84 11.72h-9.3zm9.41-3.43c.14.22.31.46.5.7-.18.22-.38.43-.6.64l-.9-2.75h.25c.11.28.35.8.75 1.41zm-.04-1.4h1.94c-.17.36-.47.94-.97 1.59a8.91 8.91 0 0 1-.97-1.6zm-2.68 5.47h2.35l-1.69 2-.66-2zm6.23 2.33h-5l2.07-2.44a.32.32 0 0 0 .06-.33l-.53-1.61c.3-.27.58-.54.83-.81.54.6 1.26 1.25 2.18 1.8a.32.32 0 0 0 .45-.1.33.33 0 0 0-.11-.45 9.3 9.3 0 0 1-2.1-1.75 8.82 8.82 0 0 0 1.26-2.12h.96a.33.33 0 0 0 0-.65H12.2v-.56a.33.33 0 0 0-.65 0v.56H9.73L8.66 3.63h5.8c.5 0 .89.4.89.88v9.95c0 .5-.4.89-.89.89z"/><path d="M6.68 6.22H4.83a.33.33 0 1 0 0 .65h1.49a1.76 1.76 0 1 1-.59-1.66.33.33 0 1 0 .43-.5A2.4 2.4 0 1 0 7 6.55a.33.33 0 0 0-.32-.33zM6.3 10.98h-.15a.33.33 0 0 0 0 .66h.15a.33.33 0 0 0 0-.66zM5.1 10.98H1.93a.33.33 0 0 0 0 .66H5.1a.33.33 0 0 0 0-.66z"/></svg>
